# xmcd
#
# Track frame offsets:
#	150
#	18290
#	34695
#	51315
#	69060
#	84855
#	102315
#	119595
#	134702
#	152805
#	169192
#	185785
#	203440
#	219225
#	236687
#	253950
#
# Disc length: 3588 seconds
#
# Revision: 2
# Processed by: cddbd v1.5.2PL0 Copyright (c) Steve Scherf et al.
# Submitted via: audiograbber 1.83.01
#
DISCID=de0e0210
DTITLE=Various Artist - SC3044
DYEAR=2001
DGENRE=Country
TTITLE0=Parnell, Lee Roy - You Can't Get There Fron Here
TTITLE1=Ewing, Skip - Answer To My Prayer
TTITLE2=Brooks and Dunn - Honky Tonk Truth
TTITLE3=Yearwood, Trisha and Brooks, Garth - In Another's Eyes
TTITLE4=Adkins, Trace - Rest Of Mine, The
TTITLE5=Tillis, Pam - Land Of The Living, The
TTITLE6=Rimes, LeAnn - You Light Up My Life
TTITLE7=Strait, George - Today My World Slipped Away
TTITLE8=Parnell, Lee Roy - You Can't Get There Fron Here (Vocal)
TTITLE9=Ewing, Skip - Answer To My Prayer (Vocal)
TTITLE10=Brooks and Dunn - Honky Tonk Truth (Vocal)
TTITLE11=Yearwood, Trisha and Brooks, Garth - In Another's Eyes (Vocal)
TTITLE12=Adkins, Trace - Rest Of Mine, The (Vocal)
TTITLE13=Tillis, Pam - Land Of The Living, The (Vocal)
TTITLE14=Rimes, LeAnn - You Light Up My Life (Vocal)
TTITLE15=Strait, George - Today My World Slipped Away (Vocal)
EXTD=Chuck
EXTT0=
EXTT1=
EXTT2=
EXTT3=
EXTT4=
EXTT5=
EXTT6=
EXTT7=
EXTT8=
EXTT9=
EXTT10=
EXTT11=
EXTT12=
EXTT13=
EXTT14=
EXTT15=
PLAYORDER=
